<?xml version="1.0" encoding="utf-8"?>
<!-- Generator: Adobe Illustrator 27.5.0, SVG Export Plug-In . SVG Version: 6.00 Build 0)  -->
<svg version="1.1" id="Layer_1" xmlns="http://www.w3.org/2000/svg" xmlns:xlink="http://www.w3.org/1999/xlink" x="0px" y="0px"
	 viewBox="0 0 1080 1080" style="enable-background:new 0 0 1080 1080;" xml:space="preserve">
<style type="text/css">
	.st0{fill:#D44E50;}
	.st1{fill:#6195D9;}
	.st2{fill:#71BFDD;}
	.st3{fill:#D65474;}
	.st4{fill:#FFFFFF;}
	.st5{fill:none;stroke:#9D2323;stroke-width:30.0834;stroke-linecap:round;stroke-linejoin:round;stroke-miterlimit:10;}
	.st6{fill:none;stroke:#D44E50;stroke-width:23.7932;stroke-linecap:round;stroke-linejoin:round;stroke-miterlimit:10;}
	.st7{fill:#8083BF;}
	.st8{fill:#6E4A91;}
	.st9{fill:#8F72A5;}
	.st10{opacity:0.21;fill:#C7A3E8;}
</style>
<path class="st0" d="M-695.24,2086.77c0,52.05-40.1,105.53-121.28,142.77c-81.18-37.24-121.3-90.73-121.3-142.77
	c0-33.49,27.15-60.64,60.66-60.64c27.21,0,42.49,15.28,60.64,42.98c18.14-27.7,33.42-42.98,60.64-42.98
	C-722.4,2026.12-695.24,2053.28-695.24,2086.77z"/>
<path class="st1" d="M89.46,873.94L89.46,873.94c-28.21-28.21-28.21-73.95,0-102.16l499.03-499.03l102.16,102.16L191.62,873.94
	C163.41,902.15,117.67,902.15,89.46,873.94z"/>
<path class="st2" d="M597.64,478.85l91.26,104.78c34.95,40.12,96.57,42.25,134.19,4.62l157.16-157.16
	c41.16-41.16,34.14-109.73-14.5-141.69l-118.3-77.74c-36.39-23.92-84.58-18.98-115.38,11.81L601.95,353.59
	C567.82,387.72,565.93,442.45,597.64,478.85z"/>
<path class="st2" d="M542.1,336.38l147.79,147.79c22.12,22.12,57.99,22.12,80.11,0l69.2-69.2c22.12-22.12,22.12-57.99,0-80.11
	L691.41,187.07c-22.12-22.12-57.99-22.12-80.11,0l-69.2,69.2C519.98,278.4,519.98,314.26,542.1,336.38z"/>
<path class="st3" d="M-729.22,1451.64c-2.14,48.37-42.05,86.94-90.95,86.94c-48.9,0-88.81-38.56-90.95-86.94
	c31.93-8.24,64-9.83,90.95,0C-793.91,1461.22-762.98,1466.28-729.22,1451.64z"/>
<g>
	<path class="st4" d="M-810.56,1351.89v18.21c0,9.77,5.97,18.55,15.06,22.13c12.42,4.9,23.02,13.32,30.67,24.35
		c7.8,11.26,11.93,24.49,11.93,38.26c0,37.09-30.17,67.26-67.26,67.26s-67.26-30.17-67.26-67.26c0-13.77,4.12-27,11.93-38.26
		c7.64-11.03,18.25-19.45,30.67-24.35c9.09-3.59,15.06-12.36,15.06-22.13v-18.21H-810.56 M-786.77,1328.1h-66.8v42
		c-33.76,13.32-57.65,46.24-57.65,84.74c0,50.29,40.77,91.05,91.05,91.05s91.05-40.77,91.05-91.05c0-38.5-23.89-71.42-57.65-84.74
		V1328.1L-786.77,1328.1z"/>
</g>
<g>
	<path class="st4" d="M-788.14,1294.24h-65.89c-11.37,0-20.59,9.22-20.59,20.59s9.22,20.59,20.59,20.59h65.89
		c11.37,0,20.59-9.22,20.59-20.59S-776.77,1294.24-788.14,1294.24L-788.14,1294.24z"/>
</g>
<path class="st5" d="M-883.91,2089.32c7.17,15.78,19.92,31.57,38.24,47.35"/>
<path class="st5" d="M-749.15,2089.32c-7.17,15.78-19.92,31.57-38.24,47.35"/>
<g>
	<g>
		<path class="st0" d="M-820.34,2393.68c37.18,0,67.43,30.25,67.43,67.43s-30.25,67.43-67.43,67.43s-67.43-30.25-67.43-67.43
			S-857.52,2393.68-820.34,2393.68 M-820.34,2369.89c-50.38,0-91.23,40.84-91.23,91.23c0,50.38,40.84,91.23,91.23,91.23
			s91.23-40.84,91.23-91.23C-729.12,2410.73-769.96,2369.89-820.34,2369.89L-820.34,2369.89z"/>
	</g>
</g>
<line class="st6" x1="-868.05" y1="2509.31" x2="-773.55" y2="2414.82"/>
<path class="st7" d="M-811.04,1709.56c-1.38,0-2.74,0-4.09,0.01v-0.02C-813.76,1709.55-812.39,1709.55-811.04,1709.56z"/>
<path class="st8" d="M-867.81,1864.15c29.44-12.93,60.39-13.73,93.16,0l37.54-25.18l-10.66-93.27H-893.3l-13.9,75.2L-867.81,1864.15
	z"/>
<path class="st9" d="M-769.4,1872.74c-16.55,0-23.45,3.87-23.45-12.67c0-16.55,6.9-29.96,23.45-29.96v-0.01
	c20.28-0.25,23.18-16.39,22.85-38.07c-0.15-9.97-6.45-18.64-15.3-21.91c-2.43-0.91-5.05-1.4-7.79-1.4
	c-26.48,0-33.61,7.3-33.61,21.34c0,20.37-8.88,25.76-15.89,25.76h-3.9c-7,0-15.88-5.69-15.88-25.76c0-12.31-5.48-19.43-24.65-21
	c-2.7-0.22-5.68-0.33-8.96-0.33c-12.71,0-22.89,10.6-23.09,23.31c-0.15,9.6,0.34,18.12,2.69,24.64c2.96,8.22,8.86,13.29,20.16,13.43
	v0.01c16.55,0,18.18,13.42,18.18,29.96c0,16.55-1.64,12.67-18.18,12.67c-22.02,0-33.73-9.75-39.96-23.96
	c-7.69-17.51-7.02-41.78-7.02-62.93c0-69.81,44.45-86.97,98.67-86.97h0.79c36.79,0.1,66.69,7.28,83.37,30.8
	c9.3,13.11,14.49,31.29,14.49,56.17C-722.42,1824.17-720.27,1872.74-769.4,1872.74z"/>
<path class="st7" d="M-806.95,1709.55v0.02c-1.35-0.01-2.72-0.01-4.09-0.01C-809.69,1709.55-808.33,1709.55-806.95,1709.55z"/>
<path class="st10" d="M-854.59,1860.07c0,16.55-1.64,12.67-18.18,12.67c-22.02,0-33.73-9.75-39.96-23.96l19.8-32.12
	c2.96,8.22,8.86,13.29,20.16,13.43v0.01C-856.22,1830.11-854.59,1843.52-854.59,1860.07z"/>
<path class="st10" d="M-736.92,1729.68l-24.93,40.44c-2.43-0.91-5.05-1.4-7.79-1.4c-26.48,0-33.61,7.3-33.61,21.34
	c0,20.37-8.88,25.76-15.89,25.76h-3.9c-7,0-15.88-5.69-15.88-25.76c0-12.31-5.48-19.43-24.65-21l43.28-70.17
	C-783.5,1698.99-753.6,1706.16-736.92,1729.68z"/>
</svg>
