<?xml version="1.0" encoding="utf-8"?>
<!-- Generator: Adobe Illustrator 27.5.0, SVG Export Plug-In . SVG Version: 6.00 Build 0)  -->
<svg version="1.1" id="Layer_1" xmlns="http://www.w3.org/2000/svg" xmlns:xlink="http://www.w3.org/1999/xlink" x="0px" y="0px"
	 viewBox="0 0 1080 1080" style="enable-background:new 0 0 1080 1080;" xml:space="preserve">
<style type="text/css">
	.st0{fill:#D44E50;}
	.st1{fill:none;stroke:#9D2323;stroke-width:30.0834;stroke-linecap:round;stroke-linejoin:round;stroke-miterlimit:10;}
	.st2{fill:none;stroke:#D44E50;stroke-width:23.7932;stroke-linecap:round;stroke-linejoin:round;stroke-miterlimit:10;}
	.st3{fill:#8083BF;}
	.st4{fill:#6E4A91;}
	.st5{fill:#8F72A5;}
	.st6{opacity:0.21;fill:#C7A3E8;}
</style>
<path class="st0" d="M-695.24,2086.77c0,52.05-40.1,105.53-121.28,142.77c-81.18-37.24-121.3-90.73-121.3-142.77
	c0-33.49,27.15-60.64,60.66-60.64c27.21,0,42.49,15.28,60.64,42.98c18.14-27.7,33.42-42.98,60.64-42.98
	C-722.4,2026.12-695.24,2053.28-695.24,2086.77z"/>
<path class="st1" d="M-883.91,2089.32c7.17,15.78,19.92,31.57,38.24,47.35"/>
<path class="st1" d="M-749.15,2089.32c-7.17,15.78-19.92,31.57-38.24,47.35"/>
<g>
	<g>
		<path class="st0" d="M-820.34,2393.68c37.18,0,67.43,30.25,67.43,67.43s-30.25,67.43-67.43,67.43s-67.43-30.25-67.43-67.43
			S-857.52,2393.68-820.34,2393.68 M-820.34,2369.89c-50.38,0-91.23,40.84-91.23,91.23c0,50.38,40.84,91.23,91.23,91.23
			s91.23-40.84,91.23-91.23C-729.12,2410.73-769.96,2369.89-820.34,2369.89L-820.34,2369.89z"/>
	</g>
</g>
<line class="st2" x1="-868.05" y1="2509.31" x2="-773.55" y2="2414.82"/>
<path class="st3" d="M587.56,177.99c-6.51,0-12.97,0-19.37,0.05v-0.11C574.7,177.93,581.16,177.93,587.56,177.99z"/>
<path class="st4" d="M318.76,910.04c139.39-61.23,285.97-65.01,441.16,0l177.78-119.25l-50.48-441.68H198.05L132.2,705.19
	L318.76,910.04z"/>
<path class="st5" d="M784.75,950.72c-78.35,0-111.04,18.34-111.04-60.01s32.69-141.89,111.04-141.89v-0.05
	c96.04-1.19,109.77-77.59,108.2-180.26c-0.7-47.21-30.55-88.28-72.44-103.75c-11.5-4.29-23.93-6.62-36.9-6.62
	c-125.4,0-159.15,34.56-159.15,101.03c0,96.48-42.05,121.98-75.26,121.98h-18.45c-33.15,0-75.21-26.97-75.21-121.98
	c0-58.28-25.94-92.03-116.72-99.46c-12.8-1.03-26.91-1.57-42.43-1.57c-60.17,0-108.41,50.19-109.34,110.37
	c-0.71,45.47,1.63,85.79,12.75,116.66c14,38.91,41.94,62.94,95.44,63.59v0.05c78.35,0,86.11,63.54,86.11,141.89
	s-7.76,60.01-86.11,60.01c-104.29,0-159.74-46.18-189.21-113.46c-36.41-82.91-33.26-197.84-33.26-298
	c0-330.56,210.48-411.84,467.24-411.84h3.74c174.23,0.49,315.8,34.46,394.81,145.85c44.06,62.07,68.64,148.19,68.64,265.99
	C1007.22,720.71,1017.42,950.72,784.75,950.72z"/>
<path class="st3" d="M606.93,177.93v0.11c-6.4-0.05-12.86-0.05-19.37-0.05C593.96,177.93,600.42,177.93,606.93,177.93z"/>
<path class="st6" d="M381.36,890.71c0,78.35-7.76,60.01-86.11,60.01c-104.29,0-159.74-46.18-189.21-113.46l93.76-152.09
	c14,38.91,41.94,62.94,95.44,63.59v0.05C373.61,748.81,381.36,812.35,381.36,890.71z"/>
<path class="st6" d="M938.58,273.27L820.5,464.76c-11.5-4.29-23.93-6.62-36.9-6.62c-125.4,0-159.15,34.56-159.15,101.03
	c0,96.48-42.05,121.98-75.26,121.98h-18.45c-33.15,0-75.21-26.97-75.21-121.98c0-58.28-25.94-92.03-116.72-99.46l204.94-332.3
	C718.01,127.9,859.57,161.87,938.58,273.27z"/>
</svg>
