<?xml version="1.0" encoding="utf-8"?>
<!-- Generator: Adobe Illustrator 27.5.0, SVG Export Plug-In . SVG Version: 6.00 Build 0)  -->
<svg version="1.1" id="Layer_1" xmlns="http://www.w3.org/2000/svg" xmlns:xlink="http://www.w3.org/1999/xlink" x="0px" y="0px"
	 viewBox="0 0 1080 1080" style="enable-background:new 0 0 1080 1080;" xml:space="preserve">
<style type="text/css">
	.st0{fill:#D44E50;}
	.st1{fill:#D65474;}
	.st2{fill:#FFFFFF;}
	.st3{fill:none;stroke:#9D2323;stroke-width:30.0834;stroke-linecap:round;stroke-linejoin:round;stroke-miterlimit:10;}
	.st4{fill:none;stroke:#D44E50;stroke-width:23.7932;stroke-linecap:round;stroke-linejoin:round;stroke-miterlimit:10;}
	.st5{fill:#8083BF;}
	.st6{fill:#6E4A91;}
	.st7{fill:#8F72A5;}
	.st8{opacity:0.21;fill:#C7A3E8;}
</style>
<path class="st0" d="M-695.24,2086.77c0,52.05-40.1,105.53-121.28,142.77c-81.18-37.24-121.3-90.73-121.3-142.77
	c0-33.49,27.15-60.64,60.66-60.64c27.21,0,42.49,15.28,60.64,42.98c18.14-27.7,33.42-42.98,60.64-42.98
	C-722.4,2026.12-695.24,2053.28-695.24,2086.77z"/>
<path class="st1" d="M867.63,644.62C859.91,818.87,716.16,957.78,540,957.78S220.09,818.87,212.37,644.62
	c115.01-29.67,230.55-35.42,327.63,0C634.58,679.13,746.02,697.36,867.63,644.62z"/>
<g>
	<path class="st2" d="M574.61,285.31v65.6c0,35.19,21.51,66.8,54.24,79.72c22.23,8.77,43.04,20.81,61.84,35.78
		c18.68,14.87,35.03,32.34,48.62,51.94c28.11,40.56,42.97,88.21,42.97,137.81c0,64.71-25.2,125.55-70.97,171.32
		c-45.76,45.76-106.61,70.97-171.32,70.97s-125.55-25.2-171.32-70.97c-45.76-45.76-70.97-106.61-70.97-171.32
		c0-49.59,14.86-97.25,42.97-137.81c13.58-19.6,29.94-37.07,48.62-51.94c18.8-14.97,39.61-27,61.84-35.78
		c32.73-12.92,54.24-44.53,54.24-79.72v-65.6H574.61 M660.32,199.61H419.68v151.3c-121.6,48-207.67,166.57-207.67,305.24
		c0,181.14,146.85,327.99,327.99,327.99s327.99-146.85,327.99-327.99c0-138.68-86.07-257.25-207.67-305.24V199.61L660.32,199.61z"/>
</g>
<g>
	<path class="st2" d="M655.37,77.64H418.03c-40.96,0-74.17,33.21-74.17,74.17c0,40.96,33.21,74.17,74.17,74.17h237.34
		c40.96,0,74.17-33.21,74.17-74.17C729.54,110.85,696.34,77.64,655.37,77.64L655.37,77.64z"/>
</g>
<path class="st3" d="M-883.91,2089.32c7.17,15.78,19.92,31.57,38.24,47.35"/>
<path class="st3" d="M-749.15,2089.32c-7.17,15.78-19.92,31.57-38.24,47.35"/>
<g>
	<g>
		<path class="st0" d="M-820.34,2393.68c37.18,0,67.43,30.25,67.43,67.43s-30.25,67.43-67.43,67.43s-67.43-30.25-67.43-67.43
			S-857.52,2393.68-820.34,2393.68 M-820.34,2369.89c-50.38,0-91.23,40.84-91.23,91.23c0,50.38,40.84,91.23,91.23,91.23
			s91.23-40.84,91.23-91.23C-729.12,2410.73-769.96,2369.89-820.34,2369.89L-820.34,2369.89z"/>
	</g>
</g>
<line class="st4" x1="-868.05" y1="2509.31" x2="-773.55" y2="2414.82"/>
<path class="st5" d="M-811.04,1709.56c-1.38,0-2.74,0-4.09,0.01v-0.02C-813.76,1709.55-812.39,1709.55-811.04,1709.56z"/>
<path class="st6" d="M-867.81,1864.15c29.44-12.93,60.39-13.73,93.16,0l37.54-25.18l-10.66-93.27H-893.3l-13.9,75.2L-867.81,1864.15
	z"/>
<path class="st7" d="M-769.4,1872.74c-16.55,0-23.45,3.87-23.45-12.67c0-16.55,6.9-29.96,23.45-29.96v-0.01
	c20.28-0.25,23.18-16.39,22.85-38.07c-0.15-9.97-6.45-18.64-15.3-21.91c-2.43-0.91-5.05-1.4-7.79-1.4
	c-26.48,0-33.61,7.3-33.61,21.34c0,20.37-8.88,25.76-15.89,25.76h-3.9c-7,0-15.88-5.69-15.88-25.76c0-12.31-5.48-19.43-24.65-21
	c-2.7-0.22-5.68-0.33-8.96-0.33c-12.71,0-22.89,10.6-23.09,23.31c-0.15,9.6,0.34,18.12,2.69,24.64c2.96,8.22,8.86,13.29,20.16,13.43
	v0.01c16.55,0,18.18,13.42,18.18,29.96c0,16.55-1.64,12.67-18.18,12.67c-22.02,0-33.73-9.75-39.96-23.96
	c-7.69-17.51-7.02-41.78-7.02-62.93c0-69.81,44.45-86.97,98.67-86.97h0.79c36.79,0.1,66.69,7.28,83.37,30.8
	c9.3,13.11,14.49,31.29,14.49,56.17C-722.42,1824.17-720.27,1872.74-769.4,1872.74z"/>
<path class="st5" d="M-806.95,1709.55v0.02c-1.35-0.01-2.72-0.01-4.09-0.01C-809.69,1709.55-808.33,1709.55-806.95,1709.55z"/>
<path class="st8" d="M-854.59,1860.07c0,16.55-1.64,12.67-18.18,12.67c-22.02,0-33.73-9.75-39.96-23.96l19.8-32.12
	c2.96,8.22,8.86,13.29,20.16,13.43v0.01C-856.22,1830.11-854.59,1843.52-854.59,1860.07z"/>
<path class="st8" d="M-736.92,1729.68l-24.93,40.44c-2.43-0.91-5.05-1.4-7.79-1.4c-26.48,0-33.61,7.3-33.61,21.34
	c0,20.37-8.88,25.76-15.89,25.76h-3.9c-7,0-15.88-5.69-15.88-25.76c0-12.31-5.48-19.43-24.65-21l43.28-70.17
	C-783.5,1698.99-753.6,1706.16-736.92,1729.68z"/>
</svg>
