<?xml version="1.0" encoding="utf-8"?>
<!-- Generator: Adobe Illustrator 27.7.0, SVG Export Plug-In . SVG Version: 6.00 Build 0)  -->
<svg version="1.1" id="Layer_1" xmlns="http://www.w3.org/2000/svg" xmlns:xlink="http://www.w3.org/1999/xlink" x="0px" y="0px"
	 viewBox="0 0 512 512" style="enable-background:new 0 0 512 512;" xml:space="preserve">
<style type="text/css">
	.st0{fill:#10574B;}
	.st1{fill:url(#SVGID_1_);}
	.st2{fill:url(#SVGID_00000181067420352805859560000017939447877544296851_);}
	.st3{fill:url(#SVGID_00000025423976783538824880000006429880728519388567_);}
	.st4{fill:url(#SVGID_00000032614506848031484580000017087466900601514678_);}
	.st5{fill:url(#SVGID_00000022519012916547532570000016846297953002321804_);}
	.st6{fill:url(#SVGID_00000178907030674905928080000014612379204327986075_);}
	.st7{fill:url(#SVGID_00000093882926809442325950000002532322607899126445_);}
	.st8{fill:url(#SVGID_00000127016562274656388120000004743964263584420268_);}
</style>
<circle class="st0" cx="256.6" cy="257.7" r="215.4"/>
<radialGradient id="SVGID_1_" cx="455.166" cy="742.1265" r="254.5818" gradientTransform="matrix(0.4023 -7.297426e-02 -7.297426e-02 0.4023 195.2904 58.1398)" gradientUnits="userSpaceOnUse">
	<stop  offset="0" style="stop-color:#010202"/>
	<stop  offset="0.8626" style="stop-color:#000000;stop-opacity:0"/>
</radialGradient>
<path class="st1" d="M426.6,305c-10.2,56.5-64.4,110.7-120.9,120.9c-56.5,10.2-94.1-27.3-83.9-83.9s64.5-110.7,121-121
	C399.5,210.8,437,248.4,426.6,305z"/>
<radialGradient id="SVGID_00000026161300546645974810000012777084261191009926_" cx="15.8455" cy="293.9598" r="254.6801" gradientTransform="matrix(0.4023 -7.297426e-02 -7.297426e-02 0.4023 195.2904 58.1398)" gradientUnits="userSpaceOnUse">
	<stop  offset="0" style="stop-color:#010202"/>
	<stop  offset="0.8626" style="stop-color:#000000;stop-opacity:0"/>
</radialGradient>
<path style="fill:url(#SVGID_00000026161300546645974810000012777084261191009926_);" d="M282.7,156.7
	c-10.3,56.5-64.5,110.7-121,121c-56.5,10.3-94.2-27.3-83.9-83.9s64.5-110.7,121.1-121S293,100,282.7,156.7z"/>
<radialGradient id="SVGID_00000003798593848884722280000002108454893309716610_" cx="-71.4141" cy="-104.4784" r="254.6288" gradientTransform="matrix(-3.215513e-02 -0.4597 0.442 0.1304 293.6671 234.617)" gradientUnits="userSpaceOnUse">
	<stop  offset="0" style="stop-color:#010202"/>
	<stop  offset="0.8626" style="stop-color:#000000;stop-opacity:0"/>
</radialGradient>
<path style="fill:url(#SVGID_00000003798593848884722280000002108454893309716610_);" d="M241.6,136.8
	c62.2,18.4,116.2,85.6,120.8,150.3S320.1,389.3,258,370.9s-116.3-85.5-120.8-150.3C132.8,155.9,179.4,118.5,241.6,136.8z"/>
<radialGradient id="SVGID_00000172434790232275231370000012743887817097781665_" cx="173.5554" cy="9.6864" r="254.6491" gradientTransform="matrix(7.925202e-02 -0.8725 0.8691 0.1104 227.6526 415.0144)" gradientUnits="userSpaceOnUse">
	<stop  offset="0" style="stop-color:#010202"/>
	<stop  offset="0.8626" style="stop-color:#000000;stop-opacity:0"/>
</radialGradient>
<path style="fill:url(#SVGID_00000172434790232275231370000012743887817097781665_);" d="M270,42.5
	C392.3,58,482.3,170.1,471.1,292.8S351.9,502.3,229.6,486.8C107.4,471.4,17.3,359.3,28.5,236.5S147.8,27,270,42.5z"/>
<radialGradient id="SVGID_00000025442863584990320030000006293349723958005924_" cx="158.9427" cy="-37.4445" r="143.0675" gradientTransform="matrix(0.7071 -0.7071 0.609 0.609 50.4748 275.7744)" gradientUnits="userSpaceOnUse">
	<stop  offset="0.6206" style="stop-color:#40BC9E"/>
	<stop  offset="0.9395" style="stop-color:#12574B"/>
</radialGradient>
<path style="fill:url(#SVGID_00000025442863584990320030000006293349723958005924_);" d="M83.6,262.2c15.8,15.8,46.8-46.8,89.3-89.3
	s104.7-72,88.3-88.3c-10.7-10.7-74.2-16-133.9,43.7C73.4,182.1,68.4,247,83.6,262.2z"/>
<radialGradient id="SVGID_00000119075265838202836200000006985227421020157845_" cx="550.0757" cy="-133.4481" r="143.0675" gradientTransform="matrix(-0.7071 0.7071 -0.609 -0.609 677.2155 -99.099)" gradientUnits="userSpaceOnUse">
	<stop  offset="0.6206" style="stop-color:#40BC9E"/>
	<stop  offset="0.9395" style="stop-color:#12574B"/>
</radialGradient>
<path style="fill:url(#SVGID_00000119075265838202836200000006985227421020157845_);" d="M426,249.6c-15.8-15.8-46.8,46.8-89.3,89.3
	s-104.6,71.9-88.3,88.3c10.7,10.7,74.2,16,133.9-43.7C436.2,329.6,441.2,264.8,426,249.6z"/>
<radialGradient id="SVGID_00000109718528007395631350000001040310994354566580_" cx="158.782" cy="-58.1223" r="83.4148" gradientTransform="matrix(0.7071 -0.7071 0.4622 0.4622 58.2392 283.5389)" gradientUnits="userSpaceOnUse">
	<stop  offset="0.2865" style="stop-color:#FFFFFF"/>
	<stop  offset="0.6912" style="stop-color:#40BC9E"/>
</radialGradient>
<path style="fill:url(#SVGID_00000109718528007395631350000001040310994354566580_);" d="M106.1,210.8c7,7,27.3-27.3,52.2-52.2
	s58.7-44.2,51.5-51.5c-16.3-16.3-55.3,15.4-71.8,31.9C121.6,155.5,90.4,195,106.1,210.8z"/>
<radialGradient id="SVGID_00000114791028433563523850000011672447371808113545_" cx="227.8581" cy="-185.0109" r="83.4148" gradientTransform="matrix(-0.7071 0.7071 -0.4622 -0.4622 442.1543 121.2974)" gradientUnits="userSpaceOnUse">
	<stop  offset="0.2865" style="stop-color:#FFFFFF"/>
	<stop  offset="0.6912" style="stop-color:#40BC9E"/>
</radialGradient>
<path style="fill:url(#SVGID_00000114791028433563523850000011672447371808113545_);" d="M404.1,301.6c-7-7-27.3,27.3-52.2,52.2
	c-24.9,24.9-58.7,44.2-51.5,51.5c16.3,16.3,55.3-15.4,71.8-31.9C388.7,356.9,419.9,317.4,404.1,301.6z"/>
</svg>