<?xml version="1.0" encoding="utf-8"?>
<!-- Generator: Adobe Illustrator 27.5.0, SVG Export Plug-In . SVG Version: 6.00 Build 0)  -->
<svg version="1.1" id="Layer_1" xmlns="http://www.w3.org/2000/svg" xmlns:xlink="http://www.w3.org/1999/xlink" x="0px" y="0px"
	 viewBox="0 0 1080 1080" style="enable-background:new 0 0 1080 1080;" xml:space="preserve">
<style type="text/css">
	.st0{fill:#D44E50;}
	.st1{fill:none;stroke:#9D2323;stroke-width:114.6936;stroke-linecap:round;stroke-linejoin:round;stroke-miterlimit:10;}
	.st2{fill:none;stroke:#D44E50;stroke-width:23.7932;stroke-linecap:round;stroke-linejoin:round;stroke-miterlimit:10;}
</style>
<path class="st0" d="M1002.44,383.44c0,198.43-152.88,402.34-462.4,544.33C230.52,785.78,77.56,581.87,77.56,383.44
	c0-127.68,103.52-231.2,231.27-231.2c103.73,0,161.98,58.25,231.2,163.85c69.15-105.6,127.4-163.85,231.2-163.85
	C898.92,152.24,1002.44,255.75,1002.44,383.44z"/>
<path class="st1" d="M283.14,393.16c27.33,60.17,75.93,120.34,145.8,180.52"/>
<path class="st1" d="M796.92,393.16C769.6,453.33,721,513.5,651.12,573.67"/>
<g>
	<g>
		<path class="st0" d="M-820.34,2393.68c37.18,0,67.43,30.25,67.43,67.43s-30.25,67.43-67.43,67.43s-67.43-30.25-67.43-67.43
			S-857.52,2393.68-820.34,2393.68 M-820.34,2369.89c-50.38,0-91.23,40.84-91.23,91.23c0,50.38,40.84,91.23,91.23,91.23
			s91.23-40.84,91.23-91.23C-729.12,2410.73-769.96,2369.89-820.34,2369.89L-820.34,2369.89z"/>
	</g>
</g>
<line class="st2" x1="-868.05" y1="2509.31" x2="-773.55" y2="2414.82"/>
</svg>
